<?xml version="1.0" standalone="no"?>
<!DOCTYPE svg PUBLIC "-//W3C//DTD SVG 20010904//EN"
 "http://www.w3.org/TR/2001/REC-SVG-20010904/DTD/svg10.dtd">
<svg version="1.0" xmlns="http://www.w3.org/2000/svg"
 width="225.000000pt" height="225.000000pt" viewBox="0 0 225.000000 225.000000"
 preserveAspectRatio="xMidYMid meet">

<g transform="translate(0.000000,225.000000) scale(0.100000,-0.100000)"
fill="#000000" stroke="none">
<path d="M1155 2019 c-66 -8 -136 -42 -185 -90 -25 -24 -50 -39 -65 -39 -35 0
-61 -30 -79 -91 -24 -78 -21 -105 13 -130 19 -14 31 -34 35 -58 4 -20 17 -57
29 -83 l23 -47 -43 30 c-31 22 -43 37 -43 55 0 29 -23 41 -53 26 -12 -6 -33
-12 -47 -14 -33 -4 -51 -41 -38 -79 12 -34 78 -97 157 -147 l58 -38 -14 -30
c-9 -16 -26 -41 -40 -55 -21 -23 -25 -37 -26 -100 -2 -77 -15 -96 -37 -55 -7
14 -27 30 -44 36 -17 7 -43 18 -57 25 -22 12 -32 11 -85 -8 -74 -27 -84 -34
-84 -54 0 -9 -9 -26 -19 -37 -29 -31 -184 -644 -175 -691 13 -73 65 -104 139
-84 27 8 69 40 142 111 57 55 120 106 139 114 28 12 96 14 367 13 183 -1 344
-6 360 -10 15 -4 78 -55 139 -114 141 -133 199 -153 258 -90 37 39 36 94 -3
245 -20 74 -54 209 -77 300 -23 91 -49 176 -58 190 -9 14 -22 37 -29 52 -16
38 -120 82 -158 68 -34 -13 -59 5 -121 86 -32 43 -71 91 -86 106 -31 31 -34
38 -15 38 8 0 33 13 57 29 33 22 51 28 75 24 26 -4 37 0 59 23 61 64 75 128
37 168 -16 17 -21 31 -16 45 9 28 -11 126 -36 177 -60 125 -210 202 -354 183z
m168 -39 c71 -27 150 -105 176 -173 9 -23 2 -18 -38 25 -79 87 -203 137 -339
138 -56 1 -57 1 -27 15 47 21 165 19 228 -5z m-99 -35 c81 -17 146 -47 193
-88 40 -35 87 -102 97 -137 6 -19 3 -17 -14 10 -34 54 -60 80 -124 122 -84 54
-171 79 -279 79 -92 0 -105 7 -40 19 59 12 93 11 167 -5z m-330 -132 c-13 -32
-24 -75 -24 -95 0 -40 -10 -48 -30 -23 -27 32 21 175 59 175 18 0 17 -3 -5
-57z m664 -249 c5 -50 -71 -145 -96 -119 -3 3 -1 14 6 23 7 9 25 43 40 74 29
62 45 69 50 22z m-738 -9 c0 -15 9 -31 25 -41 30 -20 31 -33 4 -68 -28 -36
-48 -33 -93 13 -29 30 -37 45 -34 67 2 24 8 30 33 32 17 2 34 8 40 13 16 16
25 10 25 -16z m218 -94 c69 -40 164 -71 221 -71 37 -1 43 -3 28 -11 -32 -19
-150 -13 -202 10 -60 27 -118 73 -144 115 -30 48 -26 55 12 19 17 -17 56 -45
85 -62z m-66 -32 c111 -68 148 -81 238 -81 41 0 85 -4 97 -10 34 -17 120 -131
103 -136 -8 -3 -25 -16 -38 -29 l-24 -24 -24 22 c-14 13 -28 37 -33 53 l-9 31
-1 -27 c-1 -32 -31 -40 -31 -8 0 27 -40 51 -124 72 -63 15 -73 16 -93 2 -13
-8 -23 -22 -23 -30 0 -11 -5 -14 -16 -10 -9 3 -27 9 -40 12 -27 7 -29 18 -9
54 20 34 18 42 -4 28 -15 -9 -26 -6 -65 18 -44 28 -57 44 -36 44 6 0 18 16 27
35 9 19 18 35 19 35 1 0 40 -23 86 -51z m118 -147 c0 -4 -5 -23 -10 -42 -9
-31 -8 -37 11 -52 16 -13 20 -25 15 -43 -7 -29 -20 -31 -70 -10 -22 9 -36 22
-36 33 0 25 21 95 32 110 11 13 58 17 58 4z m106 -27 l37 -15 -6 -51 c-8 -66
-20 -79 -73 -79 -43 0 -43 0 -37 30 4 23 0 37 -14 53 -17 18 -19 28 -11 56 8
30 12 33 38 27 16 -3 46 -12 66 -21z m-226 -10 c21 -11 27 -20 23 -35 -6 -21
-6 -21 -32 4 -15 14 -32 26 -39 26 -7 0 -12 5 -12 10 0 14 27 12 60 -5z m-41
-30 c27 -14 46 -49 35 -67 -3 -4 -27 -8 -55 -8 -46 0 -49 1 -49 27 0 22 24 63
37 63 2 0 17 -7 32 -15z m340 -34 c16 -10 6 -31 -15 -31 -8 0 -14 9 -14 20 0
22 7 25 29 11z m188 -17 c9 -15 32 -33 50 -40 44 -19 42 -40 -4 -49 -21 -4
-46 -14 -55 -22 -17 -15 -18 -14 -18 5 0 11 -13 32 -30 45 -36 31 -37 40 -8
67 29 27 44 25 65 -6z m-97 -57 c35 -34 50 -55 48 -70 -4 -25 -28 -35 -28 -11
0 10 -20 37 -45 61 -25 23 -45 50 -45 59 0 22 10 16 70 -39z m-214 -15 c60 -4
64 -3 75 21 13 30 27 27 72 -14 17 -16 34 -29 38 -29 9 0 29 -49 29 -74 0 -21
-4 -22 -60 -22 -60 1 -60 1 -61 31 0 17 -3 24 -6 18 -6 -16 -195 -18 -224 -3
-15 9 -19 22 -19 65 l0 54 47 -21 c26 -11 75 -23 109 -26z m-476 28 c-8 -5
-19 -10 -25 -10 -5 0 -3 5 5 10 8 5 20 10 25 10 6 0 3 -5 -5 -10z m300 -37 c0
-68 -5 -73 -72 -73 -51 0 -59 3 -56 17 2 9 14 20 28 24 21 5 23 7 8 14 -11 4
-18 18 -18 34 0 25 2 26 55 26 l55 0 0 -42z m715 -4 c12 -12 -96 31 -110 43
-5 5 15 0 45 -12 30 -12 59 -26 65 -31z m-1056 27 c-8 -8 -79 -35 -79 -30 0 6
60 33 74 34 5 0 7 -2 5 -4z m133 -18 c8 -7 25 -29 37 -48 l23 -35 -32 38 c-41
48 -64 48 -187 -3 -67 -27 -91 -34 -78 -21 22 21 169 80 201 81 11 0 27 -6 36
-12z m905 -39 c28 -11 53 -26 56 -33 3 -8 -27 1 -79 22 -46 20 -84 40 -84 44
0 4 12 3 28 -3 15 -6 50 -20 79 -30z m-955 -57 c4 -4 -10 -6 -32 -4 -33 3 -44
-1 -70 -26 -16 -17 -30 -25 -30 -18 0 14 37 50 60 59 17 7 61 -1 72 -11z m718
14 c0 -8 -31 -36 -41 -36 -17 0 -9 17 14 28 27 13 27 13 27 8z m153 -9 c8 -21
-8 -39 -29 -35 -11 2 -20 13 -22 26 -3 18 1 22 21 22 14 0 27 -6 30 -13z
m-363 -18 c0 -6 -68 -8 -192 -6 -199 5 -220 6 -214 16 7 11 406 1 406 -10z
m-523 -25 c2 -7 -6 -10 -22 -7 -28 6 -58 -13 -48 -31 3 -6 0 -5 -8 2 -12 11
-10 16 10 33 25 21 62 22 68 3z m653 -20 c0 -16 -6 -24 -17 -24 -14 0 -11 -6
11 -23 36 -29 27 -47 -22 -47 -58 0 -82 22 -82 75 0 40 2 44 28 47 56 6 82 -3
82 -28z m154 -18 c9 -13 7 -20 -7 -31 -35 -25 -70 10 -40 40 18 18 32 16 47
-9z m146 4 c0 -5 -7 -10 -15 -10 -8 0 -15 5 -15 10 0 6 7 10 15 10 8 0 15 -4
15 -10z m-70 -85 c0 -16 -35 -21 -44 -6 -8 12 4 21 26 21 10 0 18 -7 18 -15z
m-323 -35 c11 -16 10 -18 -2 -14 -10 4 -14 2 -10 -7 6 -18 -31 -66 -42 -55 -4
4 3 17 16 27 18 15 21 23 13 31 -9 9 -12 9 -12 -1 0 -7 -4 -9 -10 -6 -17 11
-11 24 10 20 11 -2 20 1 20 7 0 5 -6 8 -13 5 -8 -3 -20 -1 -28 4 -10 6 -5 9
16 9 19 0 35 -7 42 -20z m-277 -16 c0 -18 -4 -18 -24 5 -17 19 -17 19 3 14 12
-3 21 -12 21 -19z m-117 -21 c-7 -2 -19 -2 -25 0 -7 3 -2 5 12 5 14 0 19 -2
13 -5z m470 -2 c-23 -4 -52 -16 -64 -27 -22 -19 -22 -19 -11 3 15 27 27 32 77
31 l40 -1 -42 -6z m-764 -22 c-10 -6 -10 -9 -2 -9 7 0 10 -6 7 -13 -5 -15 -44
-20 -44 -6 0 14 34 46 44 41 4 -2 2 -8 -5 -13z m781 -9 c12 -8 9 -10 -12 -10
-15 0 -34 -7 -42 -16 -9 -8 -16 -11 -16 -5 0 9 38 41 50 41 3 0 12 -5 20 -10z
m-525 -20 c4 -7 -3 -8 -22 -4 -38 9 -42 14 -10 14 14 0 29 -5 32 -10z m80 3
c-11 -3 -26 -10 -32 -15 -8 -6 -13 -7 -13 -1 0 16 12 23 39 22 21 -1 22 -2 6
-6z m-41 -42 c7 -11 -14 -20 -31 -13 -7 2 -10 8 -7 13 7 12 31 12 38 0z m102
-40 c-21 -39 -54 -61 -102 -66 l-39 -5 34 9 c53 14 78 31 97 67 10 18 20 32
22 30 2 -2 -4 -18 -12 -35z m-489 -53 c-3 -8 -6 -5 -6 6 -1 11 2 17 5 13 3 -3
4 -12 1 -19z"/>
<path d="M1150 1215 c-18 -21 -5 -47 22 -43 26 3 37 36 16 49 -18 12 -24 11
-38 -6z m35 -15 c-3 -5 -10 -10 -16 -10 -5 0 -9 5 -9 10 0 6 7 10 16 10 8 0
12 -4 9 -10z"/>
</g>
</svg>
